<svg enable-background="new 0 0 228.9 38.2" viewBox="0 0 228.9 38.2" xmlns="http://www.w3.org/2000/svg"><g transform="translate(40 30)"><g><path d="m-34.7-12.7c2 0 3.6-.3 4.7-.9 1.2-.6 2.1-1.6 2.7-2.7.7-1.3 1.1-2.8 1.1-4.3 0-1.7-.4-3.4-1.3-4.9-.9-1.3-2.2-2.4-3.7-2.9-1.1-.4-2.9-.6-5.3-.6h-3.4v16.3zm-3.6-14.7h1.2c2.3 0 4 .2 5 .5 1.3.4 2.4 1.2 3.2 2.3.8 1.2 1.2 2.6 1.1 4 0 1.3-.3 2.7-1 3.8-.7 1-1.7 1.8-2.9 2.1-.9.3-2.4.4-4.7.4h-1.9zm24.6 2.6v2.2c-.5-.8-1.3-1.4-2.1-1.9-.8-.4-1.7-.6-2.7-.6-1.7 0-3.3.6-4.4 1.9-1.2 1.2-1.8 2.8-1.8 4.4 0 1.7.6 3.3 1.8 4.5 1.8 1.9 4.6 2.4 7 1.3.8-.4 1.6-1 2.2-1.8v2.1h1.5v-12h-1.5zm-1.3 2.6c.9.9 1.4 2.2 1.4 3.5 0 .9-.2 1.7-.6 2.5-.4.7-1 1.3-1.8 1.7-.7.4-1.6.6-2.4.6s-1.6-.2-2.4-.6c-.7-.4-1.3-1.1-1.8-1.8-.9-1.5-.9-3.4 0-4.9.8-1.5 2.4-2.4 4.1-2.4 1.4 0 2.6.5 3.5 1.4zm6.7-2.6h-2.1v1.3h2.1v10.7h1.5v-10.7h2.5v-1.3h-2.5v-4.5h-1.5zm15.8 0v2.2c-.5-.7-1.3-1.4-2.1-1.8s-1.7-.6-2.7-.6c-1.7 0-3.2.6-4.4 1.8s-1.9 2.8-1.8 4.4c0 1.7.6 3.3 1.8 4.5 1.8 1.9 4.6 2.4 7 1.3.8-.4 1.6-1 2.2-1.8v2.1h1.5v-12h-1.5zm-1.3 2.6c.9.9 1.4 2.2 1.4 3.5 0 .9-.2 1.7-.6 2.5-.4.7-1 1.3-1.8 1.7-.7.4-1.6.6-2.4.6s-1.6-.2-2.4-.6c-.7-.4-1.3-1.1-1.8-1.8-.9-1.5-.9-3.4 0-4.9.4-.7 1-1.4 1.7-1.8s1.5-.6 2.4-.6c1.4 0 2.6.5 3.5 1.4zm6.1 7.4c-.3.3-.4.6-.4 1s.1.7.4 1 .6.4 1 .4.7-.1 1-.4.4-.6.4-1-.1-.7-.4-1-.6-.4-1-.4-.8.1-1 .4z" fill="#5b5b5b"/><path d="m64-14.8c-.5.5-.5 1.4 0 2 .3.3.6.4 1 .4s.7-.1 1-.4c.4-.4.5-1 .3-1.5s-.7-.9-1.3-.9c-.4 0-.8.1-1 .4zm14.9-8c-.6-.8-1.4-1.4-2.3-1.9-.8-.4-1.7-.6-2.6-.6-3.5 0-6.3 2.8-6.3 6.3 0 1.1.3 2.2.8 3.1s1.3 1.7 2.3 2.2c1.8 1 4 1.1 5.9.2.8-.4 1.6-1 2.2-1.7v.6c0 1.3-.2 2.3-.5 2.9-.4.7-.9 1.2-1.6 1.5-.8.4-1.8.6-2.7.6s-1.9-.2-2.7-.6-1.4-1-1.8-1.8h-1.7c.3.8.8 1.6 1.4 2.2.6.5 1.1.9 1.9 1.2.9.3 1.9.5 2.8.4 1.3 0 2.7-.3 3.8-.9 1-.6 1.8-1.5 2.1-2.6.3-.8.4-2 .4-3.8v-9.7h-1.6v2.4zm-2.2-.3c.7.4 1.3 1 1.7 1.7.4.8.6 1.6.6 2.5.1 1.3-.4 2.5-1.3 3.4s-2 1.3-3.5 1.3c-1.3.1-2.5-.4-3.5-1.3-.9-.9-1.4-2.1-1.3-3.3 0-.9.2-1.7.6-2.5.4-.7 1-1.4 1.8-1.8s1.6-.6 2.5-.6c.8 0 1.6.2 2.4.6zm7.1-.1c-2.3 2.5-2.2 6.4.1 8.9 1.2 1.2 2.9 1.9 4.6 1.9s3.4-.7 4.6-1.9c2.3-2.5 2.4-6.3.1-8.9-1.2-1.3-2.9-2-4.7-2-1.8-.1-3.5.7-4.7 2zm8 .9c.9.9 1.4 2.2 1.4 3.5 0 .9-.2 1.7-.6 2.5-.4.7-1 1.3-1.7 1.8-1.5.8-3.3.8-4.8 0-.7-.4-1.3-1-1.7-1.8s-.6-1.6-.6-2.5c0-1.3.5-2.6 1.4-3.5s2.1-1.4 3.4-1.4c1.1 0 2.4.5 3.2 1.4zm9.2 9.6h.3l5.6-12.2h-1.7l-4 8.9-4.1-8.9h-1.7z" fill="#5b5b5b"/><g fill="#0b4d89"><path d="m23.8-12.1c-2.6 0-4.8-.8-6.5-2.5s-2.5-3.8-2.5-6.4c0-1.6.4-3.1 1.1-4.5.8-1.3 1.9-2.4 3.3-3.2s3-1.2 4.6-1.2c2.8 0 5.5 1.2 7.4 3.4l.1.2-2.5 2.4-.2-.2c-1.4-1.5-3.1-2.3-4.9-2.3-1.4 0-2.8.5-3.8 1.6-1 1-1.6 2.4-1.6 3.8 0 1 .2 2 .7 2.8s1.1 1.5 1.9 1.9c.9.5 1.8.7 2.8.7.8 0 1.6-.1 2.4-.5.9-.5 1.7-1.1 2.4-1.8l.2-.2 2.4 2.6-.2.2c-1 1-2.2 1.9-3.5 2.5-1 .5-2.3.7-3.6.7z"/><path d="m57.4-12.1c-1.1 0-2.2-.3-3.2-.9-1-.7-1.8-1.7-2.3-2.8l-.1-.2 3-1.8.1.2c.7 1.4 1.6 2.1 2.6 2.1.4 0 .9-.1 1.2-.4.3-.2.5-.6.5-.9 0-.4-.1-.7-.4-1-.5-.6-1.1-1.2-1.8-1.7-1.8-1.5-3-2.6-3.5-3.4-.5-.7-.8-1.6-.8-2.5 0-1.2.5-2.3 1.4-3.1.9-.9 2.1-1.3 3.4-1.3.9 0 1.7.2 2.5.6 1 .6 1.8 1.3 2.5 2.1l.1.2-2.7 2.4-.1-.2c-.8-1.1-1.5-1.6-2.3-1.6-.3 0-.6.1-.9.3-.2.1-.3.3-.3.6 0 .2.1.5.2.6.7.7 1.5 1.4 2.3 2.1 1.2 1 1.9 1.6 2.2 1.9.6.6 1 1.2 1.4 1.9.3.6.4 1.3.4 2 0 1.3-.5 2.6-1.5 3.5s-2.3 1.3-3.9 1.3z"/><path d="m51.7-12.5h-3.5l-1.6-9.7-3.3 9.7h-3.1l-3.2-9.7-1.7 9.7h-3.5l2.9-16.9h3.4l3.7 11 3.7-11h3.4z"/></g></g><g enable-background="new" fill="#5b616a"><path d="m-38.9 6.4c-.6-.6-.9-1.4-.9-2.4 0-.2 0-.6 0-1.1s0-.9 0-1.1c0-1 .3-1.8.9-2.4s1.4-.9 2.4-.9c.7 0 1.3.1 1.8.4s.9.6 1.1 1c.3.4.4.8.4 1.3 0 .1 0 .1-.1.2-.1 0-.1.1-.2.1h-.5c-.1 0-.1 0-.2-.1 0 0-.1-.1-.1-.2-.1-.6-.4-1-.7-1.3s-.8-.4-1.4-.4c-1.4 0-2.1.8-2.2 2.3v1s0 .8 0 1c.1 1.5.8 2.3 2.2 2.3.6 0 1.1-.1 1.4-.4s.6-.7.7-1.3c0-.1.1-.2.1-.2s.1-.1.2-.1h.6c.1 0 .1 0 .2.1.1 0 .1.1.1.2 0 .5-.2.9-.4 1.3-.3.4-.6.7-1.1 1s-1.1.4-1.8.4c-1.2.2-2-.1-2.5-.7z"/><path d="m-31.2 6.5c-.5-.5-.7-1.2-.8-2.1v-.4-.4c0-.9.3-1.6.8-2.1s1.1-.8 2-.8 1.6.3 2 .8c.5.6.7 1.3.7 2.3v.2c0 .1 0 .1-.1.2s-.1.1-.2.1h-4.2v.1c0 .5.2 1 .5 1.3.3.4.7.6 1.2.6.4 0 .7-.1.9-.2s.4-.3.5-.5c.1-.1.1-.2.2-.2h.2.5c.1 0 .1 0 .2.1.1 0 .1.1.1.2 0 .2-.1.4-.3.6s-.5.5-.9.6c-.4.2-.9.3-1.4.3-.7.1-1.4-.2-1.9-.7zm3.7-2.9c0-.6-.2-1.1-.5-1.4-.3-.4-.7-.5-1.2-.5s-.9.2-1.2.5c-.3.4-.4.8-.4 1.4z"/><path d="m-24.9 7.1c-.1-.1-.1-.2-.1-.2v-5.7c0-.1 0-.1.1-.2s.1-.1.2-.1h.5c.1 0 .2 0 .2.1 0 0 .1.1.1.2v.5c.2-.3.5-.5.8-.7s.7-.2 1.2-.2c.8 0 1.4.2 1.8.7s.6 1.1.6 2v3.4c0 .1 0 .1-.1.2s-.1.1-.2.1h-.6c-.1 0-.1 0-.2-.1s-.1-.1-.1-.2v-3.4c0-.6-.1-1-.4-1.3s-.7-.5-1.2-.5-.9.2-1.2.5-.5.8-.5 1.3v3.3c0 .1 0 .1-.1.2s-.1.1-.2.1z"/><path d="m-17.3 5v-3.2h-.9c-.1 0-.1 0-.2-.1 0 0-.1-.1-.1-.2v-.3c0-.1 0-.1.1-.2 0-.1.1-.1.2-.1h.9v-2c0-.1 0-.1.1-.2 0-.1.1-.1.2-.1h.5c.1 0 .1 0 .2.1s.1.1.1.2v2h1.5c.1 0 .1 0 .2.1s.1.1.1.2v.4c0 .1 0 .1-.1.2-.1 0-.1.1-.2.1h-1.5v3.1c0 .4.1.7.2.9s.4.3.7.3h.7c.1 0 .1 0 .2.1 0 .1.1.1.1.2v.4c0 .1 0 .1-.1.2 0 .1-.1.1-.2.1h-.8c-1.3-.1-1.9-.8-1.9-2.2z"/><path d="m-12.6 6.5c-.5-.5-.8-1.2-.8-2.1v-.4-.4c0-.9.3-1.6.8-2.1s1.1-.8 2-.8 1.6.3 2 .8c.5.6.7 1.3.7 2.3v.2c0 .1 0 .1-.1.2 0 .2-.1.2-.2.2h-4.2v.1c0 .5.2 1 .5 1.3.3.4.7.6 1.2.6.4 0 .7-.1.9-.2.3-.2.4-.3.5-.5.1-.1.1-.2.2-.2h.2.5c.1 0 .1 0 .2.1.1 0 .1.1.1.2 0 .2-.1.4-.3.6s-.5.4-.9.6-.9.3-1.4.3c-.8 0-1.5-.3-1.9-.8zm3.6-2.9c0-.6-.2-1.1-.5-1.4-.3-.4-.7-.5-1.2-.5s-.9.2-1.2.5c-.3.4-.4.8-.4 1.4z"/><path d="m-6.4 7.1c0-.1-.1-.2-.1-.2v-5.7c0-.1 0-.1.1-.2s.1-.1.2-.1h.5c.1 0 .2 0 .2.1.1 0 .1.1.1.2v.5c.3-.5.9-.8 1.7-.8h.5c.1 0 .2 0 .2.1v.2.4.2c0 .1-.1.1-.2.1h-.7c-.4 0-.8.1-1 .4-.3.3-.4.6-.4 1v3.5c0 .1 0 .1-.1.2s-.1.1-.2.1h-.5c-.2 0-.2 0-.3 0z"/><path d="m-1.2 7c-.4-.2-.7-.4-.8-.6-.2-.2-.3-.4-.3-.6 0-.1 0-.1.1-.2.1 0 .1-.1.2-.1h.5.1s.1.1.1.1c.2.2.4.4.6.5s.5.2.9.2.8-.1 1-.2c.3-.1.4-.3.4-.6 0-.2-.1-.4-.2-.5 0-.1-.2-.3-.5-.4-.3 0-.6-.2-1.2-.3s-1.1-.3-1.4-.6-.5-.7-.5-1.1c0-.3.1-.6.3-.9s.4-.5.8-.7c.3-.2.8-.3 1.2-.3.5 0 .9.1 1.3.3s.6.4.8.6.3.4.3.6c0 .1 0 .1-.1.2-.1 0-.1.1-.2.1h-.4c-.1 0-.2 0-.2-.1-.2-.3-.3-.4-.4-.5-.1 0-.2-.1-.4-.2-.2 0-.4-.1-.7-.1-.4 0-.7.1-.9.2-.2.2-.3.5-.3.7s0 .3.1.4.3.2.5.3.6.2 1.1.3c.8.3 1.4.5 1.7.8s.4.7.4 1.1c0 .3-.1.7-.3.9-.1.3-.4.6-.8.7s-.9.3-1.4.3c-.6 0-1-.1-1.4-.3z"/><path d="m7.6 7.1c-.1-.1-.1-.2-.1-.2v-5h-1c-.1 0-.1 0-.2-.1-.1 0-.1-.1-.1-.2v-.4c0-.1 0-.1.1-.2s.1-.1.2-.1h1v-.6c0-.6.2-1.2.5-1.5.3-.4.8-.5 1.6-.5h.7c.1 0 .1 0 .2.1s.1.1.1.2v.4c0 .1 0 .1-.1.2-.1 0-.1.1-.2.1h-.7c-.4 0-.6.1-.8.3s-.2.4-.2.8v.5h1.5c.1 0 .1 0 .2.1s.1.1.1.2v.4c0 .1 0 .1-.1.2s-.1.1-.2.1h-1.5v5c0 .1 0 .1-.1.2-.1 0-.1 0-.2 0h-.5c-.1 0-.2 0-.2 0z"/><path d="m11.8 6.5c-.5-.5-.7-1.2-.8-2v-.5-.5c0-.8.3-1.5.8-2s1.2-.7 2-.7c.9 0 1.5.2 2 .7s.7 1.2.8 2v.5s0 .3 0 .5c0 .8-.3 1.5-.8 2s-1.2.7-2 .7c-.8.1-1.5-.2-2-.7zm3.3-.6c.3-.3.5-.8.5-1.4 0-.1 0-.2 0-.5 0-.2 0-.4 0-.5 0-.6-.2-1.1-.5-1.4s-.7-.5-1.2-.5-.9.2-1.2.5-.5.8-.5 1.4v.5.5c0 .6.2 1.1.5 1.4s.7.5 1.2.5.9-.2 1.2-.5z"/><path d="m18.3 7.1c-.1-.1-.1-.1-.1-.2v-5.7c0-.1 0-.1.1-.2s.1-.1.2-.1h.5c.1 0 .2 0 .2.1.1.1.1.1.1.2v.5c.3-.5.9-.8 1.7-.8h.5c.1 0 .2 0 .2.1 0 0 .1.1.1.2v.4c0 .1 0 .1-.1.2 0 .1-.1.1-.2.1h-.7c-.4 0-.8.1-1 .4-.3.3-.4.6-.4 1v3.5c0 .1 0 .1-.1.2s-.1.1-.2.1h-.5c-.2 0-.3 0-.3 0z"/><path d="m25.6 7.1c-.1-.1-.1-.1-.1-.2v-7.9c0-.1 0-.2.1-.2 0-.1.1-.1.2-.1h.6c.1 0 .2.1.3.2l2.6 4.9 2.6-4.9c.1-.1.2-.2.3-.2h.6c.1 0 .2 0 .2.1-.1.1 0 .1 0 .2v7.8c0 .1 0 .1-.1.2s-.1.1-.2.1h-.6c-.1 0-.1 0-.2-.1 0-.1-.1-.1-.1-.2v-6l-2.1 4c-.1.2-.2.3-.4.3h-.4c-.2 0-.3-.1-.4-.3l-2-4v6c0 .1 0 .1-.1.2s-.1.1-.2.1h-.5s0 0-.1 0z"/><path d="m35.4 6.5c-.5-.5-.8-1.2-.8-2.1v-.4-.4c0-.9.3-1.6.8-2.1s1.1-.8 2-.8 1.6.3 2 .8c.5.6.7 1.3.7 2.3v.2c0 .1 0 .1-.1.2 0 .2 0 .2-.1.2h-4.2v.1c0 .5.2 1 .5 1.3.3.4.7.6 1.2.6.4 0 .7-.1.9-.2s.4-.3.5-.5c.1-.1.1-.2.2-.2h.2.5c.1 0 .1 0 .2.1.1 0 .1 0 .1.1 0 .2-.1.4-.3.6s-.5.5-.9.6c-.4.2-.9.3-1.4.3-.8.1-1.5-.2-2-.7zm3.7-2.9c0-.6-.2-1.1-.5-1.4-.3-.4-.7-.5-1.2-.5s-.9.2-1.2.5c-.3.4-.4.8-.4 1.4z"/><path d="m42 6.4c-.4-.5-.6-1.2-.7-2.1v-.4-.4c0-.8.3-1.5.7-2.1s1.1-.8 1.9-.8 1.5.3 1.9.9v-2.8c0-.1 0-.1.1-.2.1.1.1.1.2.1h.5c.1 0 .1 0 .2.1s.1.1.1.2v8c0 .1 0 .1-.1.2s-.1.1-.2.1h-.5c-.1 0-.1 0-.2-.1 0-.1-.1-.1-.1-.2v-.6c-.5.6-1.1.9-2 .9-.7.1-1.4-.2-1.8-.8zm3.4-.6c.3-.4.4-.8.5-1.3 0-.1 0-.2 0-.5 0-.2 0-.4 0-.5 0-.5-.2-.9-.5-1.3s-.7-.5-1.3-.5-1 .2-1.3.5c-.3.4-.4.8-.4 1.4v.3c0 1.5.6 2.3 1.7 2.3.6.1 1-.1 1.3-.4z"/><path d="m48.7-.4c-.1-.1-.1-.1-.1-.2v-.6c0-.1 0-.1.1-.2s.1-.1.2-.1h.7c.1 0 .1 0 .2.1s.1.1.1.2v.6c0 .1 0 .1-.1.2s-.1.1-.2.1h-.7c-.1 0-.1 0-.2-.1zm.1 7.5c-.1-.1-.1-.1-.1-.2v-5.7c0-.1 0-.1.1-.2s.1-.1.2-.1h.5c.1 0 .1 0 .2.1s.1.1.1.2v5.7c0 .1 0 .1-.1.2s-.1.1-.2.1h-.5c-.1-.1-.1-.1-.2-.1z"/><path d="m52.1 6.5c-.5-.5-.7-1.2-.8-2v-.5-.5c0-.9.3-1.5.8-2s1.1-.7 2-.7c.6 0 1.1.1 1.5.3s.7.5.9.8.3.6.3.9c0 .1 0 .1-.1.2-.1 0-.1 0-.2 0h-.5c-.1 0-.1 0-.2-.1 0 0-.1-.1-.1-.2-.1-.4-.3-.7-.6-.8-.3-.2-.6-.2-1-.2-.5 0-.9.2-1.2.5s-.5.8-.5 1.4v.4.4c0 .6.2 1.1.5 1.4s.7.5 1.2.5c.4 0 .7-.1 1-.2.2-.2.4-.4.6-.8 0-.1.1-.2.1-.2 0-.1.1-.1.2-.1h.5c.1 0 .1 0 .2.1s.1.1.1.2c0 .3-.1.6-.3.9s-.5.6-.9.8-.9.3-1.5.3c-.8 0-1.5-.3-2-.8z"/><path d="m58.9 7c-.3-.2-.6-.4-.8-.7s-.3-.6-.3-.9c0-.5.2-1 .6-1.3s1-.6 1.8-.7l1.8-.2v-.3c0-.8-.5-1.2-1.4-1.2-.4 0-.7.1-.9.2s-.4.3-.5.5c0 .1-.1.1-.1.2h-.1-.5c-.1 0-.1 0-.2-.1s-.1-.1-.1-.2c0-.2.1-.4.3-.6s.4-.5.8-.6c.4-.2.8-.3 1.3-.3.9 0 1.5.2 1.9.6s.6.9.6 1.6v3.9c0 .1 0 .1-.1.2s-.1.1-.2.1h-.5c-.1 0-.1 0-.2-.1s-.1-.2-.1-.2v-.6c-.2.3-.4.5-.8.7-.3.2-.8.3-1.3.3-.3 0-.7-.1-1-.3zm2.6-1.1c.3-.4.5-.9.5-1.5v-.4l-1.4.2c-.6.1-1 .2-1.3.4s-.4.4-.4.7.1.6.4.8.6.3 1 .3.9-.2 1.2-.5z"/><path d="m64.9 7.1c-.1-.1-.1-.1-.1-.2v-5.7c0-.1 0-.1.1-.2s.1-.1.2-.1h.5c.1 0 .2 0 .2.1.1.1.1.1.1.2v.5c.3-.5.9-.8 1.7-.8h.4c.1 0 .2 0 .2.1 0 0 .1.1.1.2v.4c0 .1 0 .1-.1.2 0 .1-.1.1-.2.1h-.7c-.4 0-.8.1-1 .4-.3.3-.4.6-.4 1v3.5c0 .1 0 .1-.1.2s-.1.1-.2.1h-.5c-.1 0-.1 0-.2 0z"/><path d="m69.7 6.5c-.5-.5-.7-1.2-.8-2.1v-.4-.4c0-.9.3-1.6.8-2.1s1.1-.8 2-.8 1.6.3 2 .8c.5.6.7 1.3.7 2.3v.2c0 .1 0 .1-.1.2s-.1.1-.2.1h-4.1v.1c0 .5.2 1 .5 1.3.3.4.7.6 1.2.6.4 0 .7-.1.9-.2s.4-.2.5-.4c.1-.1.1-.2.2-.2h.2.5c.1 0 .1 0 .2.1.1 0 .1.1.1.2 0 .2-.1.4-.3.6s-.6.4-1 .6-.9.3-1.4.3c-.7 0-1.4-.3-1.9-.8zm3.7-2.9c0-.6-.2-1.1-.5-1.4-.3-.4-.7-.5-1.2-.5s-.9.2-1.2.5-.5.8-.5 1.3h3.4z"/><path d="m80 7c-.4-.2-.7-.5-1-.8-.2-.4-.3-.8-.3-1.2 0-.5.1-.9.4-1.3s.7-.7 1.2-1c-.4-.4-.7-.8-.8-1.1-.2-.3-.2-.6-.2-1s.1-.7.3-1 .4-.5.8-.7.7-.3 1.2-.3c.4 0 .8.1 1.1.3s.6.4.8.7.3.6.3 1c0 .5-.2.9-.5 1.2s-.8.7-1.4 1l2.1 2c.3-.5.5-1.1.6-1.8 0-.1 0-.1.1-.2s.1-.1.2-.1h.5c.1 0 .1 0 .2.1 0 0 .1.1.1.2 0 .4-.1.8-.3 1.2s-.4.9-.7 1.3l1.2 1.2c.1 0 .1.1.1.2 0 .2-.1.2-.2.2h-.6c-.1 0-.2 0-.3-.1l-.9-.8c-.7.7-1.6 1-2.6 1-.5.1-1 0-1.4-.2zm2.4-.9c.3-.1.6-.3.9-.6l-2.3-2.2c-.4.2-.7.5-1 .7s-.3.5-.3.9.2.8.5 1.1.7.4 1.2.4c.3-.1.7-.2 1-.3zm-.1-4.7c.2-.2.4-.5.4-.8s-.1-.6-.3-.8-.5-.3-.9-.3c-.3 0-.6.1-.8.3s-.3.5-.3.8c0 .2.1.4.2.6s.4.5.7.9c.4-.2.8-.5 1-.7z"/><path d="m90.4 7.1c-.1-.1-.1-.1-.1-.2v-7.9c0-.1 0-.2.1-.2 0-.1.1-.1.2-.1h.6c.1 0 .2.1.3.2l2.5 4.9 2.6-4.9c.1-.1.2-.2.3-.2h.6c.1 0 .2 0 .2.1s.1.1.1.2v7.8c0 .1 0 .1-.1.2s-.1.1-.2.1h-.6c-.1 0-.1 0-.2-.1 0-.1-.1-.1-.1-.2v-6l-2.1 4c-.1.2-.2.3-.4.3h-.4c-.2 0-.3-.1-.4-.3l-2-4v6c0 .1 0 .1-.1.2s-.1.1-.2.1h-.5z"/><path d="m100.2 6.5c-.5-.5-.8-1.2-.8-2.1v-.4-.4c0-.9.3-1.6.8-2.1s1.1-.8 2-.8 1.6.3 2 .8c.5.6.7 1.3.7 2.3v.2c0 .1 0 .1-.1.2s-.1.1-.2.1h-4.2v.1c0 .5.2 1 .5 1.3.3.4.7.6 1.2.6.4 0 .7-.1.9-.2s.4-.3.5-.5c.1-.1.1-.2.2-.2h.2.5c.1 0 .1 0 .2.1.1 0 .1.1.1.2 0 .2-.1.4-.3.6s-.5.5-.9.6c-.4.2-.8.3-1.4.3-.8.1-1.5-.2-1.9-.7zm3.6-2.9c0-.6-.2-1.1-.5-1.4-.3-.4-.7-.5-1.2-.5s-.9.2-1.2.5c-.3.4-.4.8-.4 1.4z"/><path d="m106.7 6.4c-.4-.5-.6-1.2-.7-2.1v-.4-.4c0-.8.3-1.5.7-2.1s1.1-.8 1.9-.8 1.5.3 1.9.9v-2.8c0-.1 0-.1.1-.2s.1-.1.2-.1h.5c.1 0 .1 0 .2.1s.1.1.1.2v8c0 .1 0 .1-.1.2s-.1.1-.2.1h-.5c-.1 0-.1 0-.2-.1 0-.1-.1-.1-.1-.2v-.4c-.5.6-1.1.9-2 .9-.7.1-1.3-.2-1.8-.8zm3.4-.6c.3-.4.4-.8.5-1.3 0-.1 0-.2 0-.5 0-.2 0-.4 0-.5 0-.5-.2-.9-.5-1.3s-.7-.5-1.3-.5-1 .2-1.3.5c-.3.4-.4.8-.4 1.4v.3c0 1.5.6 2.3 1.7 2.3.6.1 1-.1 1.3-.4z"/><path d="m113.5-.4c-.1-.1-.1-.1-.1-.2v-.6c0-.1 0-.1.1-.2s.1-.1.2-.1h.7c.1 0 .1 0 .2.1s.1.1.1.2v.6c0 .1 0 .1-.1.2s-.1.1-.2.1h-.7c-.1 0-.2 0-.2-.1zm.1 7.5c-.1-.1-.1-.1-.1-.2v-5.7c0-.1 0-.1.1-.2s.1-.1.2-.1h.5c.1 0 .1 0 .2.1s.1.1.1.2v5.7c0 .1 0 .1-.1.2s-.1.1-.2.1h-.5c-.1-.1-.2-.1-.2-.1z"/><path d="m116.9 6.5c-.5-.5-.7-1.2-.8-2v-.5-.5c0-.9.3-1.5.8-2s1.1-.7 2-.7c.6 0 1.1.1 1.5.3s.7.5.9.8.3.6.3.9c0 .1 0 .1-.1.2-.1 0-.2 0-.3 0h-.5c-.1 0-.1 0-.2-.1 0 0-.1-.1-.1-.2-.1-.4-.3-.7-.6-.8-.3-.2-.6-.2-1-.2-.5 0-.9.2-1.2.5s-.5.8-.5 1.4v.4.4c0 .6.2 1.1.5 1.4s.7.5 1.2.5c.4 0 .7-.1 1-.2.2-.2.4-.4.6-.8 0-.1.1-.2.1-.2s.1-.1.2-.1h.5c.1 0 .1 0 .2.1s.1.1.1.2c0 .3-.1.6-.3.9s-.5.6-.9.8-.9.3-1.5.3c-.8 0-1.5-.3-1.9-.8z"/><path d="m123.6 7c-.3-.2-.6-.4-.8-.7s-.3-.6-.3-.9c0-.5.2-1 .6-1.3s1-.6 1.8-.7l1.8-.3v-.2c0-.8-.5-1.2-1.4-1.2-.4 0-.7.1-.9.2s-.4.3-.5.5c0 .1-.1.1-.1.2h-.1-.5c-.1 0-.1 0-.2-.1s-.1-.1-.1-.2c0-.2.1-.4.3-.6s.4-.5.8-.6.8-.3 1.3-.3c.9 0 1.5.2 1.9.6s.6.9.6 1.6v3.9c0 .1 0 .1-.1.2s-.1.1-.2.1h-.5c-.1 0-.1 0-.2-.1 0-.1-.1-.1-.1-.2v-.6c-.2.3-.4.5-.8.7-.3.2-.8.3-1.3.3-.3 0-.7-.1-1-.3zm2.6-1.1c.3-.3.5-.8.5-1.5v-.4l-1.4.2c-.6.1-1 .2-1.3.4s-.4.4-.4.7.1.6.4.8.6.3 1 .3c.5 0 .9-.2 1.2-.5z"/><path d="m129.5-.4c-.1-.1-.1-.1-.1-.2v-.6c0-.1 0-.1.1-.2s.1-.1.2-.1h.7c.1 0 .1 0 .2.1s.1.1.1.2v.6c0 .1 0 .1-.1.2s-.1.1-.2.1h-.7s-.1 0-.2-.1zm.1 7.5c-.1-.1-.1-.1-.1-.2v-5.7c0-.1 0-.1.1-.2s.1-.1.2-.1h.5c.1 0 .1 0 .2.1s.1.1.1.2v5.7c0 .1 0 .1-.1.2s-.1.1-.2.1h-.5c0-.1-.1-.1-.2-.1z"/><path d="m132.8 6.4c-.4-.5-.6-1.2-.7-2.1v-.4-.4c0-.8.3-1.5.7-2.1s1.1-.8 1.9-.8 1.5.3 1.9.9v-2.8c0-.1 0-.1.1-.2s.1-.1.2-.1h.5c.1 0 .1 0 .2.1s.1.1.1.2v8c0 .1 0 .1-.1.2s-.1.1-.2.1h-.4c-.1 0-.1 0-.2-.1 0-.1-.1-.1-.1-.2v-.4c-.5.6-1.1.9-2 .9-.8.1-1.4-.2-1.9-.8zm3.4-.6c.3-.4.4-.8.5-1.3 0-.1 0-.2 0-.5 0-.2 0-.4 0-.5 0-.5-.2-.9-.5-1.3s-.7-.5-1.3-.5-1 .2-1.3.5c-.3.4-.4.8-.4 1.4v.3c0 1.5.6 2.3 1.7 2.3.6.1 1-.1 1.3-.4z"/><path d="m143.6 6.9c-.5-.2-.9-.5-1.1-.8s-.4-.7-.4-1.1c0-.1 0-.1.1-.2 0 0 .1-.1.2-.1h.6c.1 0 .2.1.3.2.1.3.3.6.6.9s.8.4 1.5.4 1.2-.1 1.5-.4c.3-.2.5-.6.5-1 0-.3-.1-.5-.2-.7-.2-.2-.4-.3-.7-.5s-.8-.3-1.5-.5c-.6-.2-1.1-.4-1.5-.6s-.6-.4-.8-.7-.3-.7-.3-1.1.1-.8.3-1.2.6-.6 1-.8 1-.3 1.6-.3 1.2.1 1.6.3.8.5 1 .8.4.7.4 1c0 .1 0 .1-.1.2 0 0-.1.1-.2.1h-.6c-.1 0-.1 0-.2-.1-.1 0-.1-.1-.1-.2 0-.3-.2-.6-.6-.9-.3-.2-.8-.3-1.3-.3s-1 .1-1.3.3-.5.5-.5.9c0 .3.1.5.2.7s.4.3.7.5c.3.1.8.3 1.4.5.7.2 1.2.4 1.6.6s.7.4.9.7.3.7.3 1.1c0 .8-.3 1.3-.9 1.8-.6.4-1.3.6-2.3.6-.6.3-1.2.1-1.7-.1z"/><path d="m150.5 6.5c-.5-.5-.8-1.2-.8-2.1v-.4-.4c0-.9.3-1.6.8-2.1s1.1-.8 2-.8 1.6.3 2 .8c.5.6.7 1.3.7 2.3v.2c0 .1 0 .1-.1.2s-.1.1-.2.1h-4.2v.1c0 .5.2 1 .5 1.3.3.4.7.6 1.2.6.4 0 .7-.1.9-.2s.4-.3.5-.5c.1-.1.1-.2.2-.2h.2.5c.1 0 .1 0 .2.1.1 0 .1.1.1.2 0 .2-.1.4-.3.6s-.5.5-.9.6c-.4.2-.9.3-1.4.3-.8.1-1.4-.2-1.9-.7zm3.6-2.9c0-.6-.2-1.1-.5-1.4-.3-.4-.7-.5-1.2-.5s-.9.2-1.2.5c-.3.4-.4.8-.4 1.4z"/><path d="m156.7 7.1c-.1-.1-.1-.1-.1-.2v-5.7c0-.1 0-.1.1-.2s.1-.1.2-.1h.5c.1 0 .2 0 .2.1.1.1.1.1.1.2v.5c.3-.5.9-.8 1.7-.8h.5c.1 0 .2 0 .2.1 0 0 .1.1.1.2v.4c0 .1 0 .1-.1.2 0 .1-.1.1-.2.1h-.7c-.4 0-.8.1-1 .4-.3.3-.4.6-.4 1v3.5c0 .1 0 .1-.1.2s-.1.1-.2.1h-.5c-.1 0-.2 0-.3 0z"/><path d="m162.9 6.8-2.2-5.6v-.1c0-.1 0-.1.1-.2 0 0 .1-.1.2-.1h.6c.1 0 .2.1.3.2l1.8 4.8 1.8-4.8s0-.1.1-.1.1-.1.2-.1h.6c.1 0 .1 0 .2.1 0 0 .1.1.1.2v.1l-2.2 5.6c-.1.2-.2.3-.4.3h-.5c-.5 0-.6-.1-.7-.3z"/><path d="m167.8-.4c-.1-.1-.1-.1-.1-.2v-.6c0-.1 0-.1.1-.2s.1-.1.2-.1h.7c.1 0 .1 0 .2.1s.1.1.1.2v.6c0 .1 0 .1-.1.2s-.1.1-.2.1h-.7c-.1 0-.2 0-.2-.1zm.1 7.5c-.1-.1-.1-.1-.1-.2v-5.7c0-.1 0-.1.1-.2s.1-.1.2-.1h.5c.1 0 .1 0 .2.1s.1.1.1.2v5.7c0 .1 0 .1-.1.2s-.1.1-.2.1h-.5c-.1-.1-.2-.1-.2-.1z"/><path d="m171.2 6.5c-.5-.5-.7-1.2-.8-2v-.5-.5c0-.9.3-1.5.8-2s1.1-.7 2-.7c.6 0 1.1.1 1.5.3s.7.5.9.8.3.6.3.9c0 .1 0 .1-.1.2-.1 0-.2 0-.2 0h-.6c-.1 0-.1 0-.2-.1s-.1-.1-.1-.2c-.1-.4-.3-.7-.6-.8-.3-.2-.6-.2-1-.2-.5 0-.9.2-1.2.5s-.5.8-.5 1.4v.4.4c0 .6.2 1.1.5 1.4s.7.5 1.2.5c.4 0 .7-.1 1-.2.2-.2.4-.4.6-.8 0-.1.1-.2.1-.2s.2-.1.2-.1h.5c.1 0 .1 0 .2.1s.1.1.1.2c0 .3-.1.6-.3.9s-.5.6-.9.8-.9.3-1.5.3c-.8 0-1.4-.3-1.9-.8z"/><path d="m177.8 6.5c-.5-.5-.8-1.2-.8-2.1v-.4-.4c0-.9.3-1.6.8-2.1s1.1-.8 2-.8 1.6.3 2 .8c.5.6.7 1.3.7 2.3v.2c0 .1 0 .1-.1.2s-.1.1-.2.1h-4.2v.1c0 .5.2 1 .5 1.3.3.4.7.6 1.2.6.4 0 .7-.1.9-.2s.4-.3.5-.5c.1-.1.1-.2.2-.2h.2.5c.1 0 .1 0 .2.1.1 0 .1.1.1.2 0 .2-.1.4-.3.6s-.5.5-.9.6c-.4.2-.8.3-1.4.3-.8.1-1.4-.2-1.9-.7zm3.6-2.9c0-.6-.2-1.1-.5-1.4-.3-.4-.7-.5-1.2-.5s-.9.2-1.2.5c-.3.4-.4.8-.4 1.4z"/><path d="m184.7 7c-.4-.2-.7-.4-.8-.6-.2-.2-.3-.4-.3-.6 0-.1 0-.1.1-.2.1 0 .1-.1.2-.1h.5.1s.1.1.1.1c.2.2.4.4.6.5s.5.2.9.2.8-.1 1-.2c.3-.2.4-.4.4-.7 0-.2-.1-.4-.2-.5s-.3-.2-.6-.3-.6-.2-1.2-.3c-.7-.2-1.2-.4-1.5-.7s-.4-.7-.4-1.1c0-.3.1-.6.3-.9s.4-.5.8-.7c.3-.2.8-.3 1.2-.3.5 0 .9.1 1.3.3s.6.4.8.6.3.4.3.6c0 .1 0 .1-.1.2-.1 0-.1.1-.2.1h-.5c-.1 0-.2 0-.2-.1-.1-.2-.2-.3-.3-.4s-.2-.2-.4-.2c-.2-.1-.4-.1-.7-.1-.4 0-.7.1-.9.2-.2.2-.3.4-.3.7 0 .2 0 .3.1.4s.3.2.5.3.6.2 1.1.3c.8.2 1.3.4 1.6.7s.5.7.5 1.1c0 .3-.1.7-.3.9-.2.3-.5.5-.9.7s-.8.2-1.4.2c-.3.2-.8.1-1.2-.1z"/></g></g></svg>